<?xml version="1.0" standalone="no"?>
<!DOCTYPE svg PUBLIC "-//W3C//DTD SVG 20010904//EN"
 "http://www.w3.org/TR/2001/REC-SVG-20010904/DTD/svg10.dtd">
<svg version="1.0" xmlns="http://www.w3.org/2000/svg"
 width="700.000000pt" height="700.000000pt" viewBox="0 0 700.000000 700.000000"
 preserveAspectRatio="xMidYMid meet">
<metadata>
Created by potrace 1.14, written by Peter Selinger 2001-2017
</metadata>
<g transform="translate(0.000000,700.000000) scale(0.100000,-0.100000)"
fill="#000000" stroke="none">
<path d="M3331 6993 c2 -5 318 -513 702 -1129 l699 -1119 1131 -656 1132 -656
3 186 c9 614 -233 1334 -638 1902 -167 233 -435 518 -655 695 -524 421 -1116
673 -1787 760 -147 19 -593 32 -587 17z"/>
<path d="M3060 6974 c-755 -99 -1430 -424 -1969 -949 -530 -516 -874 -1170
-995 -1896 -34 -202 -46 -356 -46 -586 0 -298 29 -535 100 -828 144 -592 429
-1113 863 -1579 l101 -109 12 29 c7 16 495 1355 1084 2974 590 1620 1074 2948
1077 2953 7 11 -109 7 -227 -9z"/>
<path d="M3455 5323 c-52 -131 -1104 -3037 -1101 -3041 8 -7 3016 1202 3013
1210 -1 5 -265 160 -587 347 l-585 338 -360 576 c-198 316 -363 578 -366 582
-4 3 -10 -2 -14 -12z"/>
<path d="M6980 3360 c-8 -4 -1324 -533 -2925 -1175 -1600 -642 -2912 -1169
-2915 -1172 -5 -5 46 -51 186 -168 537 -448 1203 -726 1909 -795 156 -16 508
-16 660 -1 748 76 1423 372 1981 871 565 506 967 1236 1088 1980 29 178 37
265 34 367 -3 87 -5 100 -18 93z"/>
</g>
</svg>
