<svg id="Layer_1" data-name="Layer 1" xmlns="http://www.w3.org/2000/svg" viewBox="0 0 128 128"><defs><style>.cls-1{fill:none;stroke:#000;stroke-miterlimit:10;stroke-width:2px;}</style></defs><title>compass-ticks</title><line vector-effect="non-scaling-stroke" class="cls-1" x1="64" x2="64" y2="6"/><line vector-effect="non-scaling-stroke" class="cls-1" x1="64" y1="121" x2="64" y2="129"/><line vector-effect="non-scaling-stroke" class="cls-1" x1="128.49" y1="63.23" x2="122.49" y2="63.35"/><line vector-effect="non-scaling-stroke" class="cls-1" x1="7.51" y1="65.61" x2="-0.49" y2="65.77"/><line vector-effect="non-scaling-stroke" class="cls-1" x1="109.61" y1="18.89" x2="105.37" y2="23.13"/><line vector-effect="non-scaling-stroke" class="cls-1" x1="24.05" y1="104.45" x2="18.39" y2="110.11"/><line vector-effect="non-scaling-stroke" class="cls-1" x1="110.5" y1="109.2" x2="106.17" y2="105.04"/><line vector-effect="non-scaling-stroke" class="cls-1" x1="23.27" y1="25.34" x2="17.5" y2="19.8"/><line vector-effect="non-scaling-stroke" class="cls-1" x1="39.32" y1="4.91" x2="41.61" y2="10.45"/><line vector-effect="non-scaling-stroke" class="cls-1" x1="85.62" y1="116.7" x2="88.68" y2="124.09"/><line vector-effect="non-scaling-stroke" class="cls-1" x1="123.09" y1="38.65" x2="117.6" y2="41.05"/><line vector-effect="non-scaling-stroke" class="cls-1" x1="12.24" y1="87.15" x2="4.91" y2="90.35"/><line vector-effect="non-scaling-stroke" class="cls-1" x1="88.68" y1="4.91" x2="86.39" y2="10.45"/><line vector-effect="non-scaling-stroke" class="cls-1" x1="42.38" y1="116.7" x2="39.32" y2="124.09"/><line vector-effect="non-scaling-stroke" class="cls-1" x1="124.06" y1="88" x2="118.48" y2="85.82"/><line vector-effect="non-scaling-stroke" class="cls-1" x1="11.38" y1="43.91" x2="3.94" y2="41"/></svg>