<svg id="Layer_2" data-name="Layer 2" xmlns="http://www.w3.org/2000/svg" viewBox="0 0 128 128"><defs><style>.cls-1{fill:#5a8daf;}.cls-2{fill:#fff;}.cls-3{fill:none;stroke:#fff;stroke-linecap:round;stroke-linejoin:round;stroke-width:1.5px;}</style></defs><title>waves-arrow</title><polygon class="cls-1" points="52.46 101.63 61.19 92.9 63.38 0.5 64.61 0.5 66.81 92.9 75.54 101.63 64 126.8 52.46 101.63"/><path class="cls-2" d="M64.13,1l2.18,91.71v.4l.28.29,8.34,8.33L64,125.6,53.06,101.73,61.4,93.4l.28-.29v-.4L63.87,1h.26m1-1H62.9L60.69,92.69l-8.83,8.83L64,128l12.14-26.48-8.83-8.83L65.1,0Z"/><path class="cls-3" d="M63.53,97.48c-.12,2.29,1.28,3.42,3,4.26a6.05,6.05,0,0,1,3,7.61,2.92,2.92,0,0,0-5.64-1.25A3,3,0,0,0,66,112a2.81,2.81,0,0,0-2.43,2.87"/><path class="cls-3" d="M61.61,114.91c0-1.35-1.71-1.49-1.71-3.34"/><path class="cls-3" d="M61.61,110.21c0-1.34-1.71-1.48-1.71-3.34"/><path class="cls-3" d="M61.61,105.6c0-1.35-1.71-1.49-1.71-3.34"/><path class="cls-3" d="M61.61,100.83c0-1.35-1.71-1.49-1.71-3.35"/></svg>