<svg id="Layer_2" data-name="Layer 2" xmlns="http://www.w3.org/2000/svg" viewBox="0 0 128 128"><defs><style>.cls-1{fill:#3a46dd;stroke-miterlimit:10;}.cls-1,.cls-2{stroke:#fff;stroke-width:2px;}.cls-2{fill:none;stroke-linecap:round;stroke-linejoin:round;}</style></defs><title>waves-arrow3</title><polygon vector-effect="non-scaling-stroke" class="cls-1" points="65.81 46.83 74.14 39.38 74.14 27.33 64 22.5 53.86 27.33 53.86 39.38 62.19 46.83 63 96.5 61 98.5 64 105.5 67 98.5 65 96.5 65.81 46.83"/><path vector-effect="non-scaling-stroke" class="cls-2" d="M63.62,42.81c.11-2-1.13-3-2.68-3.75a5.33,5.33,0,0,1-2.6-6.7,2.46,2.46,0,0,0,2.48,2.78,2.49,2.49,0,0,0,2.49-1.68A2.61,2.61,0,0,0,61.44,30a2.46,2.46,0,0,0,2.14-2.53"/><path vector-effect="non-scaling-stroke" class="cls-2" d="M65.3,27.46c0,1.19,1.51,1.31,1.51,2.95"/><path vector-effect="non-scaling-stroke" class="cls-2" d="M65.3,31.6c0,1.18,1.51,1.31,1.51,2.94"/><path vector-effect="non-scaling-stroke" class="cls-2" d="M65.3,35.66c0,1.19,1.51,1.31,1.51,3"/><path vector-effect="non-scaling-stroke" class="cls-2" d="M65.3,39.87c0,1.18,1.51,1.31,1.51,2.94"/></svg>