<svg id="Layer_1" data-name="Layer 1" xmlns="http://www.w3.org/2000/svg" viewBox="0 0 128 128"><defs><style>.cls-1,.cls-2{fill:#ffffff60;stroke:#e5354c;stroke-miterlimit:10;stroke-width:2px;}.cls-2{stroke-linecap:round;}</style></defs><title>wind-arrow2</title><polygon vector-effect="non-scaling-stroke" class="cls-1" points="61.19 26.33 51.86 10.83 64 2 76.14 10.83 66.81 26.33 66 112 68 114 64 125 60 114 62 112 61.19 26.33"/><path vector-effect="non-scaling-stroke" class="cls-2" d="M64.11,4.83v8.45c0,1.63.23,3.78,1.75,4.65,1.17.67,3.59.54,4.06-1.5s-1.09-3-2.44-2.47a1.7,1.7,0,0,0-1,1.9"/><path vector-effect="non-scaling-stroke" class="cls-2" d="M65.73,6.1v4.37c0,1.06.45,1.67,1.13,1.67a1,1,0,0,0,1-1.2"/><path vector-effect="non-scaling-stroke" class="cls-2" d="M62.42,7.26v4.35c0,1.36-.2,3.16-1.5,3.88-1,.56-3.07.45-3.48-1.25a1.89,1.89,0,0,1,1.31-2.41"/><path vector-effect="non-scaling-stroke" class="cls-2" d="M62.79,16.63a11.44,11.44,0,0,1-.16,2.31A1.94,1.94,0,0,1,62,20a1.66,1.66,0,0,1-.89.32,1.63,1.63,0,0,1-1-.19,1.43,1.43,0,0,1-.69-1.08,1.3,1.3,0,0,1,.92-1.37"/></svg>