<svg id="Layer_1" data-name="Layer 1" xmlns="http://www.w3.org/2000/svg" viewBox="0 0 128 128"><defs><style>.cls-1{fill:#e5354c;}.cls-1,.cls-2{stroke:#fff;stroke-miterlimit:10;stroke-width:2px;}.cls-2{fill:none;stroke-linecap:round;}</style></defs><title>wind-arrow3</title><polygon vector-effect="non-scaling-stroke" class="cls-1" points="65.81 26.33 74.14 18.88 74.14 6.83 64 2 53.86 6.83 53.86 18.88 62.19 26.33 63 116 61 118 64 125 67 118 65 116 65.81 26.33"/><path vector-effect="non-scaling-stroke" class="cls-2" d="M64.11,5.83v8.45c0,1.63.23,3.78,1.75,4.65,1.17.67,3.59.54,4.06-1.5s-1.09-3-2.44-2.47a1.7,1.7,0,0,0-1,1.9"/><path vector-effect="non-scaling-stroke" class="cls-2" d="M65.73,7.1v4.37c0,1.06.45,1.67,1.13,1.67a1,1,0,0,0,1-1.2"/><path vector-effect="non-scaling-stroke" class="cls-2" d="M62.42,8.26v4.35c0,1.36-.2,3.16-1.5,3.88-1,.56-3.07.45-3.48-1.25a1.89,1.89,0,0,1,1.31-2.41"/><path vector-effect="non-scaling-stroke" class="cls-2" d="M62.79,17.63a11.44,11.44,0,0,1-.16,2.31A1.94,1.94,0,0,1,62,21a1.66,1.66,0,0,1-.89.32,1.63,1.63,0,0,1-1-.19,1.43,1.43,0,0,1-.69-1.08,1.3,1.3,0,0,1,.92-1.37"/></svg>