<svg id="Layer_1" data-name="Layer 1" xmlns="http://www.w3.org/2000/svg" viewBox="0 0 128 128"><defs><style>.cls-1,.cls-3{fill:#fff;}.cls-2{fill:#a090a3;}.cls-3{stroke:#a090a3;stroke-linecap:round;stroke-miterlimit:10;}</style></defs><title>wind-arrow</title><polygon class="cls-1" points="52.46 101.63 61.19 92.9 63.38 0.5 64.61 0.5 66.81 92.9 75.54 101.63 64 126.8 52.46 101.63"/><path class="cls-2" d="M64.13,1l2.18,91.71v.4l.28.29,8.34,8.33L64,125.6,53.06,101.73,61.4,93.4l.28-.29v-.4L63.87,1h.26m1-1H62.9L60.69,92.69l-8.83,8.83L64,128l12.14-26.48-8.83-8.83L65.1,0Z"/><path class="cls-3" d="M64.11,95.2v8.45c0,1.63.23,3.78,1.75,4.65,1.17.67,3.59.54,4.06-1.5s-1.09-3-2.44-2.47a1.7,1.7,0,0,0-1,1.9"/><path class="cls-3" d="M65.73,96.47v4.37c0,1.06.45,1.67,1.13,1.67a1,1,0,0,0,1-1.2"/><path class="cls-3" d="M62.42,97.64V102c0,1.37-.2,3.16-1.5,3.89-1,.56-3.07.45-3.48-1.26a1.89,1.89,0,0,1,1.31-2.41"/><path class="cls-3" d="M62.79,107a11.4,11.4,0,0,1-.16,2.3,1.91,1.91,0,0,1-.66,1.06,1.67,1.67,0,0,1-.89.33,1.8,1.8,0,0,1-1-.19,1.43,1.43,0,0,1-.69-1.09,1.29,1.29,0,0,1,.92-1.36"/></svg>